<?xml version="1.0" encoding="utf-8"?>
<!-- Generator: Adobe Illustrator 24.3.0, SVG Export Plug-In . SVG Version: 6.00 Build 0)  -->
<svg version="1.1" id="Layer_1" xmlns="http://www.w3.org/2000/svg" xmlns:xlink="http://www.w3.org/1999/xlink" x="0px" y="0px"
	 viewBox="0 0 168 118" style="enable-background:new 0 0 168 118;" xml:space="preserve">
<style type="text/css">
	.st0{fill:#FFFFFF;}
</style>
<g>
	<path class="st0" d="M77.6,85.9c-0.3,0.3-0.5,0.5-0.7,0.6c-5.2,4.2-10.8,7.6-17.1,9.7c-9.9,3.4-19.6,2.9-28.8-2.6
		c-0.1-0.1-0.3-0.1-0.6-0.2c0.1,0.2,0.2,0.4,0.2,0.5c0.3,0.4,0.6,0.8,1,1.2c5.8,6.5,13.2,9.9,21.8,10.5c9.1,0.6,17.2-2.3,24.6-7.3
		c2-1.3,3.9-2.9,5.9-4.3c0.9,0.9,1.8,1.7,2.7,2.6c1,0.9,1.9,1.7,2.9,2.5c12.5,10.8,26.9,15.4,43.3,13.5c11.6-1.4,20.9-6.8,27.6-16.5
		c1-1.4,1.8-3,2.8-4.7c-0.4,0.2-0.5,0.2-0.6,0.2c-0.1,0.1-0.2,0.2-0.3,0.3c-10,11-22.5,15.5-37.1,13.6c-16.1-2-29.5-9.5-39.8-21.9
		c-10.6-12.7-13-27.2-7.4-43c0-0.1,0-0.2,0-0.3C67.5,55.3,68.7,70.5,77.6,85.9z M22.2,98.6c-0.2-0.3-0.3-0.5-0.5-0.8
		c-5-8.3-7.2-17.3-6.8-26.9c0.5-10.2,4-19.5,9.3-28.2c7-11.4,16.1-20.5,28.3-26.3c9.7-4.6,19.7-6.3,30.3-4c1.7,0.4,3.4,0.9,5.1,1.4
		c-0.3-0.3-0.6-0.6-0.9-0.8C75.3,6.3,63,4.9,50.1,9c-9.6,3.1-17.6,8.8-24.5,16C16.1,35,10,46.8,8.5,60.6c-1,8.7,0.1,17.2,3.9,25.3
		C14.7,90.8,18,95.1,22.2,98.6z M156,86.7c0.3-0.2,0.4-0.3,0.5-0.4c0.2-0.2,0.3-0.4,0.5-0.7c4.5-6.6,5.7-13.9,4.4-21.6
		c-1.5-9.1-6-16.6-12.6-22.9c-10.6-10.2-23.1-15-37.8-13.8c-1.8,0.2-3.5,0.5-5.4,0.8c0.6,1.1,1,1.9,1.5,2.7c0.4,0.9,0.8,1.8,1.3,2.6
		c0.2,0.3,0.7,0.6,1.1,0.7c1.3,0.2,2.7,0.1,4.1,0.3c18.2,1.7,31.7,10.4,40.3,26.6c2.4,4.6,4.2,9.3,4.1,14.6
		C157.7,79.3,157.1,82.9,156,86.7z M94.4,82.5c0.2-0.1,0.3-0.1,0.3-0.2c0.2-0.3,0.5-0.6,0.7-0.9c5.5-8.3,8.8-17.4,8.8-27.5
		c0-8.5-2.3-16.3-7.7-23c-3.1-3.8-7-6.5-11.8-8.5c0.4,0.5,0.6,0.7,0.8,0.9c2.9,3,5.1,6.4,6.8,10.2c0.3,0.7,0.3,1.2-0.3,1.7
		c-2.5,2.1-4.4,4.7-5.9,7.5c-0.2,0.4-0.4,0.9-0.7,1.3c2.7-2.2,5.3-4.4,8.4-6c0.1,0.4,0.2,0.5,0.2,0.7c1.7,6.8,1.4,13.5-0.4,20.2
		c-1.3,4.8-3.3,9.3-5.6,13.7c-0.2,0.4-0.4,1.1-0.2,1.5C89.5,77.5,91.7,80.2,94.4,82.5z"/>
	<path d="M77.6,85.9c-8.9-15.4-10-30.6,0.5-45.7c0,0.1,0,0.2,0,0.3c-5.6,15.8-3.2,30.3,7.6,43.1c10.4,12.4,23.8,19.8,39.8,21.9
		c14.6,1.9,27.1-2.6,37.1-13.6c0.1-0.1,0.2-0.2,0.3-0.3c0.1,0,0.1-0.1,0.6-0.2c-1,1.7-1.8,3.3-2.8,4.7c-6.7,9.7-16,15.1-27.6,16.5
		c-16.4,1.9-30.8-2.6-43.3-13.5c-1-0.8-2-1.7-2.9-2.5s-1.8-1.7-2.7-2.6c-2,1.5-3.9,3-5.9,4.3c-7.4,5-15.5,7.9-24.6,7.3
		c-8.6-0.6-16-4-21.8-10.5c-0.3-0.4-0.7-0.8-1-1.2c-0.1-0.1-0.1-0.2-0.2-0.5c0.3,0.1,0.4,0.1,0.6,0.2c9.2,5.5,18.8,5.9,28.8,2.6
		c6.3-2.1,12-5.5,17.1-9.7C77.1,86.4,77.3,86.2,77.6,85.9z"/>
	<path d="M22.2,98.6c-4.2-3.5-7.5-7.7-9.8-12.7c-3.8-8-4.8-16.5-3.9-25.3C10,46.8,16.1,35,25.7,25c6.9-7.2,14.9-12.9,24.5-16
		c12.9-4.1,25.2-2.7,36.9,4c0.3,0.2,0.7,0.4,0.9,0.8c-1.7-0.5-3.4-1-5.1-1.4c-10.6-2.3-20.7-0.6-30.3,4
		c-12.2,5.8-21.3,14.9-28.3,26.3C19,51.3,15.4,60.6,15,70.8c-0.4,9.6,1.8,18.6,6.8,26.9C21.9,98,22.1,98.3,22.2,98.6z"/>
	<path d="M156,86.7c1.1-3.8,1.7-7.4,1.8-11.1c0.1-5.3-1.7-10-4.1-14.6c-8.6-16.2-22.1-24.9-40.3-26.6c-1.4-0.1-2.7-0.1-4.1-0.3
		c-0.4,0-0.9-0.3-1.1-0.7c-0.5-0.8-0.8-1.7-1.3-2.6c-0.4-0.9-0.9-1.7-1.5-2.7c1.9-0.3,3.6-0.7,5.4-0.8c14.7-1.3,27.3,3.6,37.8,13.8
		c6.6,6.3,11.1,13.8,12.6,22.9c1.3,7.8,0.1,15-4.4,21.6c-0.2,0.2-0.3,0.5-0.5,0.7C156.3,86.4,156.2,86.4,156,86.7z"/>
	<path d="M94.4,82.5c-2.7-2.3-4.8-5-6.5-8.1c-0.2-0.4-0.1-1.1,0.2-1.5c2.4-4.4,4.3-8.9,5.6-13.7c1.8-6.7,2.1-13.4,0.4-20.2
		c0-0.2-0.1-0.4-0.2-0.7c-3.1,1.6-5.7,3.8-8.4,6c0.2-0.4,0.4-0.9,0.7-1.3c1.6-2.8,3.5-5.4,5.9-7.5c0.7-0.6,0.7-1,0.3-1.7
		c-1.7-3.8-3.9-7.2-6.8-10.2c-0.2-0.2-0.4-0.5-0.8-0.9c4.8,2,8.7,4.7,11.8,8.5c5.4,6.7,7.7,14.5,7.7,23c0,10.1-3.2,19.1-8.8,27.5
		c-0.2,0.3-0.4,0.6-0.7,0.9C94.7,82.4,94.6,82.4,94.4,82.5z"/>
</g>
</svg>
